<svg xmlns="http://www.w3.org/2000/svg" width="320" height="460" viewBox="0 0 320 460"><rect width="320" height="460" fill="#264F47"/><rect x="18" y="18" width="284" height="424" fill="none" stroke="#C4C897"/><path d="M85 344C73 262 144 267 160 217C173 282 240 267 229 344M159 214V384M111 294L158 327L207 294" fill="none" stroke="#C4C897" stroke-width="3"/><path d="M161 261C111 231 81 242 91 266C102 294 143 277 161 261ZM159 302C207 276 233 290 224 310C216 330 182 318 159 302ZM159 356C116 325 91 344 103 363C114 381 143 368 159 356Z" fill="#C4C897"/><text x="160" y="80" text-anchor="middle" fill="#F6E9CD" font-family="Georgia,serif" font-size="16" letter-spacing="3">JANE AUSTEN</text><text x="160" y="132" text-anchor="middle" fill="#F6E9CD" font-family="Georgia,serif" font-size="38">Pride and</text><text x="160" y="175" text-anchor="middle" fill="#F6E9CD" font-family="Georgia,serif" font-size="38">Prejudice</text><text x="160" y="414" text-anchor="middle" fill="#F6E9CD" font-family="Arial,sans-serif" font-size="10" letter-spacing="3">THE TOGETHER CLASSICS</text></svg>
